<svg id="Layer_1" data-name="Layer 1" xmlns="http://www.w3.org/2000/svg" viewBox="0 0 61.17 57.83"><defs><style>.cls-1,.cls-2{fill:none;stroke:#6d6a69;stroke-linejoin:round;}.cls-1{stroke-width:1.6px;}.cls-2{stroke-linecap:round;stroke-width:1.2px;}</style></defs><title>W17-Shop-Landing-Icons</title><path class="cls-1" d="M41.85,56.83H19.15c-1.9,0-1.9-1.8-1.9-2.7l0.6-27.7-4,3.6a1.27,1.27,0,0,1-.9.4,3.22,3.22,0,0,1-2-1.2l-4.5-3.9c-0.6-.6-1.9-1.9-0.8-2.9l5.9-5.9a13.56,13.56,0,0,1,9.8-4.7h2.9a0.71,0.71,0,0,1,.6.3s2.6,3.3,5.4,3.3h0.3c0.9,0,4.1-.2,5.3-3.2a1.38,1.38,0,0,1,.9-0.5h2.9a13.31,13.31,0,0,1,9.8,4.7l5.9,5.9a1.22,1.22,0,0,1,0,2.1L49.15,30a1.13,1.13,0,0,1-2,0l-4-3.6,0.6,27.7C43.75,55,43.75,56.83,41.85,56.83Z"/><polygon class="cls-2" points="38.25 30.13 35.05 30.93 31.85 30.13 31.85 23.53 38.25 23.53 38.25 30.13"/></svg>